<svg id="color" enable-background="new 0 0 24 24" height="512" viewBox="0 0 24 24" width="512" xmlns="http://www.w3.org/2000/svg"><path d="m16.109 11.701-.199-.027c-.399-.109-.635-.522-.525-.921.077-.282.115-.567.115-.871 0-1.893-1.57-3.434-3.5-3.434s-3.5 1.541-3.5 3.434c0 .304.038.588.115.871.11.399-.125.812-.525.921-.396.112-.812-.125-.921-.525-.114-.413-.169-.827-.169-1.267 0-2.72 2.243-4.934 5-4.934s5 2.213 5 4.934c0 .439-.055.854-.168 1.267-.092.333-.394.552-.723.552z" fill="#607d8b"/><path d="m17.755 17.947c-.221 0-.44-.097-.588-.284-.257-.325-.203-.796.122-1.054 2.041-1.617 3.211-4.037 3.211-6.639 0-4.675-3.813-8.478-8.5-8.478s-8.5 3.803-8.5 8.478c0 2.602 1.17 5.021 3.211 6.639.325.257.379.729.122 1.054s-.729.379-1.054.122c-2.402-1.904-3.779-4.752-3.779-7.814 0-5.502 4.486-9.978 10-9.978s10 4.476 10 9.978c0 3.063-1.377 5.911-3.78 7.814-.137.109-.302.162-.465.162z" fill="#607d8b"/><path d="m12 17.5c-1.654 0-3-1.346-3-3s1.346-3 3-3 3 1.346 3 3-1.346 3-3 3z" fill="#2196f3"/><path d="m16.75 24h-9.5c-.414 0-.75-.336-.75-.75v-1.5c0-1.517 1.233-2.75 2.75-2.75h5.5c1.517 0 2.75 1.233 2.75 2.75v1.5c0 .414-.336.75-.75.75z" fill="#2196f3"/><path d="m12 4.949c-2.757 0-5 2.213-5 4.934 0 .439.055.854.168 1.267.091.332.394.553.722.553.066 0 .133-.009.199-.028.399-.109.635-.522.525-.921-.076-.283-.114-.568-.114-.872 0-1.893 1.57-3.434 3.5-3.434z" fill="#546d79"/><path d="m12 0h-.386c-5.336.203-9.614 4.598-9.614 9.971 0 3.063 1.377 5.911 3.78 7.814.138.109.302.162.466.162.221 0 .44-.097.588-.284.257-.325.203-.796-.122-1.054-2.042-1.617-3.212-4.037-3.212-6.638 0-4.675 3.813-8.478 8.5-8.478z" fill="#546d79"/><g fill="#1d83d4"><path d="m12 11.5c-1.654 0-3 1.346-3 3s1.346 3 3 3z"/><path d="m12 19h-2.75c-1.517 0-2.75 1.233-2.75 2.75v1.5c0 .414.336.75.75.75h4.75z"/></g></svg>