<svg id="Capa_1" enable-background="new 0 0 512 512" height="512" viewBox="0 0 512 512" width="512" xmlns="http://www.w3.org/2000/svg"><g><g><path d="m143.5 399c78.701 0 142.5-64.299 142.5-143l-27.187-30.5-32.813 30.5c0 45.498-37.002 83-82.5 83s-83.5-37.502-83.5-83l-36.562-30.5-23.438 30.5c0 78.701 64.799 143 143.5 143z" fill="#ff6e7c"/></g><path d="m368.5 173c45.498 0 83.5 37.502 83.5 83l30 18 30-18c0-78.701-64.799-143-143.5-143s-142.5 64.299-142.5 143h60c0-45.498 37.002-83 82.5-83z" fill="#ff468c"/><path d="m368.5 399c78.701 0 143.5-64.299 143.5-143h-60c0 45.498-38.002 83-83.5 83s-82.5-37.502-82.5-83l-29.063-30.5-30.937 30.5c0 78.701 63.799 143 142.5 143z" fill="#4ab8f7"/><path d="m143.5 173c45.498 0 82.5 37.502 82.5 83h60c0-78.701-63.799-143-142.5-143s-143.5 64.299-143.5 143h60c0-45.498 38.002-83 83.5-83z" fill="#80dbff"/></g></svg>