<svg height="423pt" viewBox="-14 0 423 423.3324" width="423pt" xmlns="http://www.w3.org/2000/svg"><path d="m258.078125 358.316406c-6.105469-20.699218-2.875-43.035156 8.847656-61.15625 11.726563-18.121094 30.773438-30.226562 52.15625-33.140625-28.597656-3.949219-56.878906 9.097657-72.441406 33.414063s-15.5625 55.464844 0 79.777344c15.5625 24.316406 43.84375 37.363281 72.441406 33.417968-28.804687-4.027344-52.628906-24.457031-61.003906-52.3125zm0 0" fill="#d4e1f4"/><path d="m186.164062 372.003906c16.101563.007813 32.132813-2.070312 47.699219-6.183594 2.082031-.539062 3.714844-2.152343 4.28125-4.226562.566407-2.074219-.023437-4.292969-1.539062-5.816406-1.519531-1.519532-3.738281-2.113282-5.8125-1.554688-14.5625 3.84375-29.5625 5.789063-44.625 5.78125-95.945313 0-174-78.058594-174-174 0-95.945312 78.054687-174 174-174 95.945312 0 174 78.054688 174 174 .085937 27.15625-6.261719 53.949219-18.515625 78.1875-1.003906 1.917969-.894532 4.226563.285156 6.042969 1.179688 1.8125 3.242188 2.855469 5.402344 2.722656 2.160156-.132812 4.078125-1.421875 5.027344-3.367187 13.101562-25.910156 19.886718-54.554688 19.800781-83.589844 0-102.5625-83.441407-186-186-186-102.5625 0-186 83.4375-186 186s83.4375 186.003906 185.996093 186.003906zm0 0" fill="#0635c9"/><path d="m247.160156 184.066406c-19.300781 0-35.007812 13.515625-35.007812 30.128906 0 16.609376 15.699218 30.125 35.007812 30.125 19.304688 0 35.003906-13.515624 35.003906-30.125v-132.5625c0-1.84375-.847656-3.585937-2.300781-4.722656-1.449219-1.136718-3.34375-1.542968-5.136719-1.101562l-121.984374 30.089844c-2.679688.660156-4.566407 3.066406-4.566407 5.828124v131.839844c-6.660156-4.902344-14.730469-7.515625-23.003906-7.449218-19.300781 0-35.007813 13.515624-35.007813 30.128906 0 16.609375 15.699219 30.125 35.007813 30.125 19.304687 0 35.003906-13.515625 35.003906-30.125v-102.109375l109.988281-27.132813v54.511719c-6.660156-4.902344-14.734374-7.515625-23.003906-7.449219zm0 48.253906c-12.6875 0-23.007812-8.132812-23.007812-18.125 0-9.996093 10.320312-18.128906 23.007812-18.128906 12.683594 0 23.003906 8.132813 23.003906 18.128906 0 9.992188-10.320312 18.125-23.003906 18.125zm-121.988281 52.046876c-12.6875 0-23.007813-8.132813-23.007813-18.128907 0-9.992187 10.320313-18.125 23.007813-18.125 12.683594 0 23.003906 8.132813 23.003906 18.125 0 9.996094-10.320312 18.128907-23.003906 18.128907zm35.003906-132.59375v-35.347657l109.988281-27.132812v35.351562zm0 0" fill="#0635c9"/><g fill="#1ae5be"><path d="m257.117188 405.878906c14.921874 11.375 33.175781 17.511719 51.9375 17.453125 42.15625.003907 78.105468-30.539062 84.914062-72.144531 6.804688-41.605469-17.542969-82.011719-57.503906-95.4375-39.960938-13.429688-83.765625 4.078125-103.464844 41.347656-19.699219 37.273438-9.488281 83.328125 24.117188 108.78125zm51.9375-142.546875c40.90625-.023437 74.082031 33.125 74.089843 74.03125.007813 40.90625-33.152343 74.066407-74.058593 74.058594s-74.054688-33.183594-74.03125-74.089844c.035156-40.855469 33.148437-73.964843 74-74zm0 0"/><path d="m274.054688 343.332031h29v29c0 3.3125 2.6875 6 6 6s6-2.6875 6-6v-29h29c3.3125 0 6-2.6875 6-6s-2.6875-6-6-6h-29v-29c0-3.3125-2.6875-6-6-6s-6 2.6875-6 6v29h-29c-3.3125 0-6 2.6875-6 6s2.6875 6 6 6zm0 0"/></g></svg>