<svg height="423pt" viewBox="-14 0 423 423.3304" width="423pt" xmlns="http://www.w3.org/2000/svg"><path d="m186.164062 372c14.21875.003906 28.386719-1.617188 42.238282-4.828125 5.726562 15.355469 15.679687 28.773437 28.714844 38.707031 14.921874 11.375 33.175781 17.507813 51.9375 17.449219 38.324218 0 72.023437-25.359375 82.636718-62.1875 10.613282-36.824219-4.417968-76.230469-36.863281-96.628906 11.496094-24.570313 17.417969-51.382813 17.335937-78.511719 0-102.5625-83.4375-186-186-186-102.558593 0-186 83.4375-186 186s83.441407 186 186 186zm196.890626-34.671875c-.015626 33.269531-22.242188 62.4375-54.316407 71.273437-32.074219 8.835938-66.101562-4.828124-83.15625-33.394531-17.050781-28.566406-12.933593-65 10.0625-89.042969 23-24.039062 59.21875-29.765624 88.511719-13.992187 23.949219 12.921875 38.886719 37.941406 38.898438 65.15625zm-196.890626-325.328125c95.945313 0 174 78.054688 174 174 .074219 25.15625-5.367187 50.019531-15.945312 72.84375-29.621094-13.25-64.171875-8.707031-89.363281 11.746094-25.1875 20.453125-36.730469 53.339844-29.84375 85.046875-12.746094 2.902343-25.777344 4.367187-38.847657 4.363281-95.945312 0-174-78.054688-174-174s78.054688-174 174-174zm0 0"/><path d="m125.171875 296.363281c19.300781 0 35.003906-13.511719 35.003906-30.125v-102.105469l109.988281-27.128906v54.511719c-6.660156-4.90625-14.734374-7.519531-23.003906-7.449219-19.300781 0-35.007812 13.515625-35.007812 30.125 0 16.613282 15.699218 30.128906 35.007812 30.128906 19.304688 0 35.003906-13.515624 35.003906-30.128906v-132.558594c0-1.84375-.847656-3.585937-2.300781-4.722656-1.449219-1.136718-3.34375-1.542968-5.136719-1.101562l-121.984374 30.089844c-2.679688.660156-4.566407 3.0625-4.566407 5.824218v131.84375c-6.660156-4.90625-14.730469-7.519531-23.003906-7.449218-19.300781 0-35.007813 13.515624-35.007813 30.125 0 16.613281 15.703126 30.121093 35.007813 30.121093zm121.988281-64.046875c-12.6875 0-23.007812-8.132812-23.007812-18.125 0-9.996094 10.320312-18.128906 23.007812-18.128906 12.683594 0 23.003906 8.132812 23.003906 18.128906 0 9.992188-10.320312 18.128906-23.003906 18.128906zm-86.984375-115.902344 109.988281-27.128906v35.351563l-109.988281 27.132812zm-35.003906 131.699219c12.683594 0 23.003906 8.132813 23.003906 18.128907 0 9.992187-10.320312 18.121093-23.003906 18.121093-12.6875 0-23.007813-8.128906-23.007813-18.125 0-9.996093 10.320313-18.125 23.007813-18.125zm0 0"/><path d="m315.054688 331.328125v-29c0-3.3125-2.6875-6-6-6s-6 2.6875-6 6v29h-29c-3.3125 0-6 2.6875-6 6 0 3.316406 2.6875 6 6 6h29v29c0 3.316406 2.6875 6 6 6s6-2.683594 6-6v-29h29c3.3125 0 6-2.683594 6-6 0-3.3125-2.6875-6-6-6zm0 0"/></svg>